<?xml version="1.0" encoding="UTF-8" standalone="no"?>
<!--
  This file is part of X2C. http://x2c.lcm.at/
  
  Copyright (c) 2014, Linz Center of Mechatronics GmbH (LCM) http://www.lcm.at/
  All rights reserved.
  
  This file was generated by createDefaultBlockImg.sci on 29-09-2021 11:26
  -->

<svg
   width="120mm"
   height="100mm"
   version="1.1"
   id="svg4"
   sodipodi:docname="RandomGen.svg"
   inkscape:version="1.1 (c68e22c387, 2021-05-23)"
   xmlns:inkscape="http://www.inkscape.org/namespaces/inkscape"
   xmlns:sodipodi="http://sodipodi.sourceforge.net/DTD/sodipodi-0.dtd"
   xmlns="http://www.w3.org/2000/svg"
   xmlns:svg="http://www.w3.org/2000/svg">
  <defs
     id="defs8" />
  <sodipodi:namedview
     id="namedview6"
     pagecolor="#ffffff"
     bordercolor="#666666"
     borderopacity="1.0"
     inkscape:pageshadow="2"
     inkscape:pageopacity="0.0"
     inkscape:pagecheckerboard="0"
     showgrid="true"
     inkscape:snap-others="true"
     inkscape:zoom="2.3150307"
     inkscape:cx="220.73141"
     inkscape:cy="189.41433"
     inkscape:window-width="1920"
     inkscape:window-height="1137"
     inkscape:window-x="-8"
     inkscape:window-y="-8"
     inkscape:window-maximized="1"
     inkscape:current-layer="svg4"
     width="120mm"
     units="mm"
     inkscape:document-units="mm">
    <inkscape:grid
       type="xygrid"
       id="grid524" />
  </sodipodi:namedview>
  <path
     style="fill:none;stroke:#0000ff;stroke-width:10;stroke-linecap:square;stroke-linejoin:miter;stroke-miterlimit:4;stroke-dasharray:none;stroke-opacity:1"
     d="m 110,270 10,-140 25,120 15,-95 15,110 20,-40 15,-50 20,30 25,-55 20,85 35,35 10,-130"
     id="path1016"
     sodipodi:nodetypes="cccccccccccc" />
  <path
     style="fill:#000000;fill-opacity:1;stroke:#000000;stroke-width:0.0959167"
     d="m 340.80799,139.95233 c -9.3329,-0.53392 -17.42481,-3.34011 -24.39831,-8.46108 -1.95289,-1.43411 -5.22693,-4.32077 -5.14329,-4.53476 0.0351,-0.0899 6.00864,-8.22471 10.16203,-13.83878 0.63808,-0.86249 1.29543,-1.84617 1.46077,-2.18594 0.27421,-0.56351 0.30063,-0.70123 0.30085,-1.56817 3e-4,-1.2628 -0.22974,-1.9056 -1.19994,-3.35254 -0.41097,-0.61291 -2.4395,-3.72325 -4.50786,-6.911872 -2.06836,-3.188623 -3.81021,-5.851391 -3.87078,-5.917265 -0.0858,-0.09327 -0.20408,0.0119 -0.53468,0.475204 -0.84536,1.184688 -11.7416,16.183733 -11.81305,16.261053 -0.0924,0.10002 -0.70368,-2.36978 -0.96053,-3.88101 -0.7019,-4.12967 -0.70184,-8.703732 1.6e-4,-12.830517 2.3,-13.52068 12.123,-25.223796 25.68005,-30.595198 3.97092,-1.573302 7.92919,-2.529437 12.50137,-3.019739 1.51843,-0.16283 7.33964,-0.162597 8.85725,3.56e-4 4.66614,0.501031 8.2731,1.441416 12.4148,3.236708 l 1.23434,0.535044 12.75334,19.720978 12.75334,19.720978 -0.0229,0.85537 c -0.0572,2.13858 -0.42374,3.93158 -1.16586,5.70245 -0.68858,1.6431 -1.12729,2.61119 -1.18288,2.61025 -0.0266,-3.6e-4 -0.80864,-1.18669 -1.73781,-2.6361 -8.50407,-13.265409 -20.38893,-31.631439 -20.83245,-32.193 -0.50111,-0.634485 -1.45894,-1.421794 -2.11388,-1.737556 -0.4587,-0.221145 -0.65302,-0.256679 -1.40361,-0.256679 -0.76575,0 -0.94106,0.03352 -1.44827,0.276956 -1.15298,0.553357 -1.75417,1.270998 -5.9592,7.113429 l -3.88378,5.396147 13.12706,20.342253 13.12705,20.34225 -0.46337,0.40898 c -6.59747,5.82295 -14.81424,9.51339 -23.59871,10.59901 -2.60696,0.32218 -5.87447,0.45189 -8.13124,0.32279 z M 345,125 c 1.20347,-0.62978 1.62712,-1.17805 8.42571,-10.90387 0.70175,-1.00391 1.29939,-1.88535 1.32808,-1.95877 0.0478,-0.1222 -4.70839,-7.56442 -16.04617,-25.108362 -2.26334,-3.502256 -4.60989,-7.137569 -5.21457,-8.078472 -1.27276,-1.980482 -2.3185,-3.113541 -3.33312,-3.611451 -0.52333,-0.256811 -0.67181,-0.284969 -1.50041,-0.284533 -0.85592,3.59e-4 -0.96318,0.02277 -1.54881,0.322013 -1.11056,0.567506 -1.69214,1.267243 -5.83223,7.017085 -2.1163,2.939162 -3.84783,5.383515 -3.84783,5.431893 0,0.04838 4.92862,7.694181 10.95248,16.990667 6.02386,9.29649 11.16152,17.24868 11.41702,17.67153 0.8776,1.4524 1.75035,2.30451 2.77758,2.71191 0.70797,0.28079 1.65305,0.2029 2.42227,-0.19964 z"
     id="path9116"
     sodipodi:nodetypes="ssssssssssssssssscccsscsssssscccsssssssssscsssssss" />
</svg>
