<?xml version="1.0" encoding="UTF-8"?>
<!DOCTYPE svg PUBLIC "-//W3C//DTD SVG 1.1//EN" "http://www.w3.org/Graphics/SVG/1.1/DTD/svg11.dtd">
<!-- Creator: CorelDRAW X6 -->
<svg xmlns="http://www.w3.org/2000/svg" xml:space="preserve" width="80mm" height="80mm" version="1.1" style="shape-rendering:geometricPrecision; text-rendering:geometricPrecision; image-rendering:optimizeQuality; fill-rule:evenodd; clip-rule:evenodd"
viewBox="0 0 8000 8000"
 xmlns:xlink="http://www.w3.org/1999/xlink">
 <defs>
  <style type="text/css">
   <![CDATA[
    .str0 {stroke:black;stroke-width:150}
    .str1 {stroke:blue;stroke-width:150}
    .fil0 {fill:none}
   ]]>
  </style>
 </defs>
 <g id="Ebene_x0020_1">
  <metadata id="CorelCorpID_0Corel-Layer"/>
  <polyline class="fil0 str0" points="7000,6500 1000,6500 1000,1500 "/>
  <path class="fil0 str1" d="M1000 2500c333,0 667,0 833,0 167,0 167,0 390,433 224,433 671,1299 921,1799 250,500 303,634 413,701 110,67 276,67 443,67"/>
  <path class="fil0 str1" d="M7000 2500c-333,0 -667,0 -833,0 -167,0 -167,0 -390,433 -224,433 -671,1299 -921,1799 -250,500 -303,634 -413,701 -110,67 -276,67 -443,67"/>
 </g>
</svg>
