<?xml version="1.0" encoding="UTF-8"?>
<!DOCTYPE svg PUBLIC "-//W3C//DTD SVG 1.1//EN" "http://www.w3.org/Graphics/SVG/1.1/DTD/svg11.dtd">
<!-- Creator: CorelDRAW X6 -->
<svg xmlns="http://www.w3.org/2000/svg" xml:space="preserve" width="130mm" height="100mm" version="1.1" style="shape-rendering:geometricPrecision; text-rendering:geometricPrecision; image-rendering:optimizeQuality; fill-rule:evenodd; clip-rule:evenodd"
viewBox="0 0 13000 10000"
 xmlns:xlink="http://www.w3.org/1999/xlink">
 <defs>
  <style type="text/css">
   <![CDATA[
    .str1 {stroke:black;stroke-width:150}
    .str0 {stroke:blue;stroke-width:150}
    .str2 {stroke:black;stroke-width:200}
    .fil2 {fill:none}
    .fil0 {fill:#E8D600}
    .fil1 {fill:blue;fill-rule:nonzero}
   ]]>
  </style>
 </defs>
 <g id="Ebene_x0020_1">
  <metadata id="CorelCorpID_0Corel-Layer"/>
  <polygon class="fil0" points="13000,10000 0,10000 0,5000 "/>
  <path class="fil1 str0" d="M3500 4917c494,-988 989,-1954 1500,-1954 523,0 1028,1010 1533,2020 495,990 990,1980 1467,1980 235,0 476,-243 688,-547 217,-310 404,-684 529,-933l250 -500 33 17 0 84 -217 433c-125,251 -313,627 -534,942 -225,321 -484,579 -749,579 -523,0 -1028,-1011 -1533,-2021 -495,-990 -990,-1979 -1467,-1979 -477,0 -972,989 -1467,1979l-33 -17 0 -83z"/>
  <line class="fil2 str1" x1="3500" y1="2000" x2="3500" y2= "8000" />
  <line class="fil2 str1" x1="9500" y1="5000" x2="3533" y2= "5017" />
  <path class="fil2 str2" d="M3500 3496c167,-999 333,-1997 583,-2074 250,-76 584,770 917,770 333,0 667,-846 917,-763 250,84 416,1096 583,2096 167,1000 333,1988 583,2065 250,77 584,-757 917,-757 333,0 667,834 914,755 247,-78 408,-1069 569,-2059"/>
 </g>
</svg>
